<?xml version="1.0" encoding="utf-8"?>
<!-- Generator: Adobe Illustrator 24.2.3, SVG Export Plug-In . SVG Version: 6.00 Build 0)  -->
<svg version="1.1" id="Ebene_1" xmlns="http://www.w3.org/2000/svg" xmlns:xlink="http://www.w3.org/1999/xlink" x="0px" y="0px"
	 viewBox="0 0 150 262" style="enable-background:new 0 0 150 262;" xml:space="preserve">
<style type="text/css">
	.st0{clip-path:url(#SVGID_3_);}
	.st1{clip-path:url(#SVGID_4_);fill:#FFFFFF;}
	.st2{clip-path:url(#SVGID_7_);}
	.st3{clip-path:url(#SVGID_8_);fill:#FFFFFF;}
	.st4{clip-path:url(#SVGID_11_);}
	.st5{clip-path:url(#SVGID_12_);fill:#FFFFFF;}
	.st6{clip-path:url(#SVGID_15_);}
	.st7{clip-path:url(#SVGID_16_);fill:#FFFFFF;}
</style>
<g>
	<g>
		<defs>
			<rect id="SVGID_1_" x="5.3" y="5.4" width="140" height="252"/>
		</defs>
		<defs>
			<path id="SVGID_2_" d="M145.3,5.4v252H5.3V5.4H145.3L145.3,5.4z M143.3,7.4H7.3v248h136V7.4L143.3,7.4z"/>
		</defs>
		<clipPath id="SVGID_3_">
			<use xlink:href="#SVGID_1_"  style="overflow:visible;"/>
		</clipPath>
		<clipPath id="SVGID_4_" class="st0">
			<use xlink:href="#SVGID_2_"  style="overflow:visible;"/>
		</clipPath>
		<rect x="0.3" y="0.4" class="st1" width="150" height="262"/>
	</g>
	<g>
		<defs>
			<rect id="SVGID_5_" x="5.3" y="5.4" width="140" height="252"/>
		</defs>
		<defs>
			<path id="SVGID_6_" d="M34.6,141.2v-8.7h6.1v-2.9h-6.1V124H41v-2.9H31v20.1H34.6L34.6,141.2z M54.1,141.5c4.1,0,7.9-3.1,7.9-10.3
				c0-7.2-3.8-10.3-7.9-10.3s-7.9,3.1-7.9,10.3C46.2,138.3,50,141.5,54.1,141.5L54.1,141.5z M54.1,138.6c-2.3,0-4.2-2-4.2-7.5
				c0-5.5,1.8-7.5,4.2-7.5s4.2,2,4.2,7.5C58.3,136.7,56.4,138.6,54.1,138.6L54.1,138.6z M71.5,141.2v-15.6h0.1l6.6,15.6h4.3v-20.1
				h-3.3v15.7h-0.1l-6.6-15.7h-4.3v20.1H71.5L71.5,141.2z M94.5,141.2c5.5,0,9.5-3.3,9.5-10c0-6.6-3.3-10-9.5-10h-5.2v20.1H94.5
				L94.5,141.2z M94.2,138.3H93v-14.4h1.2c4.1,0,5.9,2.8,5.9,7.2C100.2,135.5,98.3,138.3,94.2,138.3L94.2,138.3z M114.3,141.5
				c3.8,0,6.7-2,6.7-6c0-2.8-1.1-4.1-3.4-5.4l-2.1-1.2c-1.1-0.6-2.1-1.2-2.1-2.7c0-1.4,0.9-2.4,2.8-2.4c1.7,0,2.8,0.5,3.7,0.9
				l0.2-3.1c-0.6-0.2-2-0.7-4.2-0.7c-3.3,0-6.3,1.9-6.3,5.5c0,2.6,1.3,4.2,3.2,5.3l1.8,1c1.8,1,2.6,1.6,2.6,3c0,2-1.4,2.9-3,2.9
				c-1.9,0-3.5-0.8-4.2-1.2l-0.2,3.3C110.8,141.2,112.4,141.5,114.3,141.5L114.3,141.5z"/>
		</defs>
		<clipPath id="SVGID_7_">
			<use xlink:href="#SVGID_5_"  style="overflow:visible;"/>
		</clipPath>
		<clipPath id="SVGID_8_" class="st2">
			<use xlink:href="#SVGID_6_"  style="overflow:visible;"/>
		</clipPath>
		<rect x="26" y="115.8" class="st3" width="100" height="30.6"/>
	</g>
	<g>
		<defs>
			<rect id="SVGID_9_" x="5.3" y="5.4" width="140" height="252"/>
		</defs>
		<defs>
			<path id="SVGID_10_" d="M34.7,112.5v-9.6h0.1l6.1,9.6h4.5L38,101.7l6.9-9.6h-4.3l-5.8,8.7h-0.1v-8.7H31v20.4H34.7L34.7,112.5z
				 M54.2,112.8c3.8,0,6.9-2.1,6.9-7.5V92.1h-3.7v13.2c0,3.4-1,4.5-3.2,4.5c-2.2,0-3.2-1.1-3.2-4.5V92.1h-3.7v13.2
				C47.3,110.7,50.3,112.8,54.2,112.8L54.2,112.8z M75.2,112.5v-3h-6.7V92.1h-3.7v20.4H75.2L75.2,112.5z M84,112.5V95.1h4.5v-3H75.8
				v3h4.5v17.5H84L84,112.5z M97.4,112.8c3.8,0,6.9-2.1,6.9-7.5V92.1h-3.7v13.2c0,3.4-1,4.5-3.2,4.5c-2.2,0-3.2-1.1-3.2-4.5V92.1
				h-3.7v13.2C90.5,110.7,93.6,112.8,97.4,112.8L97.4,112.8z M111.4,112.5v-8.8h0.8c1.4,0,2.3,0.5,2.8,2.1l2,6.6h3.9l-2.6-7.8
				c-0.6-1.9-1.5-2.3-2.2-2.4v-0.1c2.3-0.4,3.9-2.1,3.9-4.8c0-3.7-2.4-5.4-6-5.4h-6.3v20.4H111.4L111.4,112.5z M112.9,101h-1.5v-6
				h1.5c2.1,0,3.3,0.6,3.3,2.9C116.2,100,114.9,101,112.9,101L112.9,101z"/>
		</defs>
		<clipPath id="SVGID_11_">
			<use xlink:href="#SVGID_9_"  style="overflow:visible;"/>
		</clipPath>
		<clipPath id="SVGID_12_" class="st4">
			<use xlink:href="#SVGID_10_"  style="overflow:visible;"/>
		</clipPath>
		<rect x="26" y="87.1" class="st5" width="100" height="30.7"/>
	</g>
	<g>
		<defs>
			<rect id="SVGID_13_" x="5.3" y="5.4" width="140" height="252"/>
		</defs>
		<defs>
			<path id="SVGID_14_" d="M34.6,54.4v-8.8h5.9v8.8h3.6v-20h-3.6v8.1h-5.9v-8.1H31v20H34.6L34.6,54.4z M52.9,54.4l1.4-4.8h6.8
				l1.4,4.8h3.8l-6.4-20h-4l-6.7,20H52.9L52.9,54.4z M60.4,46.8h-5.3l2.7-9.4h0.1L60.4,46.8L60.4,46.8z M78.1,54.7
				c3.7,0,6.7-2.1,6.7-7.3v-13h-3.6v13c0,3.3-1,4.4-3.1,4.4c-2.1,0-3.1-1.1-3.1-4.4v-13h-3.6v13C71.3,52.7,74.3,54.7,78.1,54.7
				L78.1,54.7z M95.2,54.4v-7.8h2c4.1,0,6.2-2.3,6.2-6.1c0-3.8-2.1-6.1-6.2-6.1h-5.7v20H95.2L95.2,54.4z M96.5,43.8h-1.4v-6.6h1.4
				c2.3,0,3.3,1.1,3.3,3.3S98.8,43.8,96.5,43.8L96.5,43.8z M115.9,54.4V37.4h4.4v-2.9h-12.5v2.9h4.4v17.1H115.9L115.9,54.4z
				 M35.1,83.4c3.8,0,6.7-2,6.7-6c0-2.8-1.1-4.1-3.4-5.4l-2.1-1.2C35,70.2,34,69.6,34,68.1c0-1.4,0.9-2.4,2.8-2.4
				c1.7,0,2.8,0.5,3.7,0.9l0.2-3.1c-0.6-0.2-2-0.7-4.2-0.7c-3.3,0-6.3,1.9-6.3,5.5c0,2.6,1.3,4.2,3.2,5.3l1.8,1c1.8,1,2.6,1.6,2.6,3
				c0,2-1.4,2.9-3,2.9c-1.9,0-3.5-0.8-4.2-1.2l-0.2,3.3C31.5,83.1,33.1,83.4,35.1,83.4L35.1,83.4z M54.6,83.1V66H59v-2.9H46.6V66H51
				v17.1H54.6L54.6,83.1z M66.3,83.1l1.4-4.8h6.8l1.4,4.8h3.8l-6.4-20h-4l-6.7,20H66.3L66.3,83.1z M73.8,75.5h-5.3l2.7-9.4h0.1
				L73.8,75.5L73.8,75.5z M91.6,83.1c5.5,0,9.5-3.3,9.5-10c0-6.6-3.3-10-9.5-10h-5.2v20H91.6L91.6,83.1z M91.3,80.3h-1.2V65.9h1.2
				c4.1,0,5.9,2.8,5.9,7.2S95.4,80.3,91.3,80.3L91.3,80.3z M115.7,83.1V66h4.4v-2.9h-12.5V66h4.4v17.1H115.7L115.7,83.1z"/>
		</defs>
		<clipPath id="SVGID_15_">
			<use xlink:href="#SVGID_13_"  style="overflow:visible;"/>
		</clipPath>
		<clipPath id="SVGID_16_" class="st6">
			<use xlink:href="#SVGID_14_"  style="overflow:visible;"/>
		</clipPath>
		<rect x="25.3" y="29.4" class="st7" width="100" height="59"/>
	</g>
</g>
</svg>
