<svg xmlns="http://www.w3.org/2000/svg" width="488" viewBox="0 0 488 229" fill="white"><defs><style>.cls-1{fill-rule:evenodd;}</style></defs><g id="Layer_2" data-name="Layer 2"><g id="Layer_1-2" data-name="Layer 1"><g id="HKF_Logo_140" data-name="HKF Logo 140"><g id="Group"><path id="Outline" d="M140,0V252H0V0Zm-2,2H2V250H138Z"/><path id="FONDS" class="cls-1" d="M29.3535,135.7394v-8.7333h6.1118v-2.93H29.3535v-5.4583H35.75v-2.93H25.7148v20.0521Zm19.4725.2873c4.1219,0,7.9027-3.1026,7.9027-10.3134S52.9479,115.4,48.826,115.4s-7.9027,3.1026-7.9027,10.3133S44.7041,136.0267,48.826,136.0267Zm0-2.8154c-2.3026,0-4.15-1.9822-4.15-7.498s1.8477-7.498,4.15-7.498,4.15,1.9823,4.15,7.498S51.1286,133.2113,48.826,133.2113Zm17.4258,2.5281v-15.628h.0568l6.5667,15.628h4.3493V115.6873H73.9271V131.43H73.87l-6.595-15.7429H62.9543v20.0521Zm22.9975,0c5.5148,0,9.4946-3.275,9.4946-10.0261,0-6.6361-3.2975-10.026-9.4946-10.026H84.0755v20.0521Zm-.3127-2.8153H87.7142V118.5026h1.2224c4.0935,0,5.9412,2.8154,5.9412,7.2107S93.03,132.9241,88.9366,132.9241Zm20.1263,3.1026c3.7808,0,6.6519-1.9535,6.6519-6.0329,0-2.8153-1.1086-4.0794-3.44-5.4009l-2.1321-1.2065c-1.1086-.632-2.1036-1.2066-2.1036-2.7,0-1.3789.9381-2.3556,2.7575-2.3556a9.3741,9.3741,0,0,1,3.7239.8618l.1706-3.0739a12.8394,12.8394,0,0,0-4.15-.7182c-3.3259,0-6.2539,1.8673-6.2539,5.4583a5.6377,5.6377,0,0,0,3.2407,5.2572l1.8477,1.0342c1.7625.9768,2.5869,1.6088,2.5869,3.0452a2.7606,2.7606,0,0,1-3.0133,2.9015,8.0566,8.0566,0,0,1-4.2072-1.2353l-.199,3.275A8.9965,8.9965,0,0,0,109.0629,136.0267Z"/><path id="KULTUR" d="M29.4247,107.1044V97.4973h.0869l6.0865,9.6071h4.4924l-7.42-10.808L39.54,86.66h-4.26l-5.7677,8.67h-.0869V86.66h-3.71v20.4444Zm19.4694.2929c3.7968,0,6.869-2.1089,6.869-7.4982V86.66h-3.71V99.8991c0,3.3976-1.0434,4.5106-3.1592,4.5106-2.1737,0-3.1881-1.113-3.1881-4.5106V86.66h-3.71V99.8991C41.9961,105.2884,45.0684,107.3973,48.8941,107.3973ZM69.9,107.1044v-2.9876H63.2336V86.66h-3.71v20.4444Zm8.8181,0V89.6476H83.21V86.66H70.4866v2.9876H75.008v17.4568Zm13.4265.2929c3.7968,0,6.869-2.1089,6.869-7.4982V86.66h-3.71V99.8991c0,3.3976-1.0434,4.5106-3.1591,4.5106-2.1738,0-3.1882-1.113-3.1882-4.5106V86.66h-3.71V99.8991C85.2463,105.2884,88.3185,107.3973,92.1443,107.3973Zm13.9771-.2929v-8.787h.8405a2.6323,2.6323,0,0,1,2.8114,2.1382l2,6.6488h3.9417l-2.6374-7.7911c-.6377-1.9039-1.4782-2.2554-2.2317-2.3725v-.0879a4.5776,4.5776,0,0,0,3.9127-4.8035c0-3.7492-2.4346-5.3894-6.0285-5.3894h-6.3183v20.4444Zm1.5071-11.54h-1.5071V89.53h1.5071c2.0868,0,3.3041.5858,3.3041,2.929C110.9326,94.539,109.5994,95.5642,107.6285,95.5642Z"/><path id="HAUPTSTADT" class="cls-1" d="M29.3535,49.0246V40.1885h5.89v8.8361h3.6422V29H35.2434v8.1475h-5.89V29H25.7113V49.0246Zm18.2959,0,1.4227-4.82H55.901l1.3943,4.82h3.7559L54.6491,29H50.6655L44.0073,49.0246Zm7.4834-7.6312H49.84l2.7316-9.3524h.0569Zm17.6415,7.9181c3.7274,0,6.7436-2.0656,6.7436-7.3443V29H75.8757V41.9672c0,3.3279-1.0243,4.418-3.1014,4.418-2.1341,0-3.13-1.09-3.13-4.418V29H66.0022V41.9672C66.0022,47.2459,69.0183,49.3115,72.7743,49.3115Zm17.1008-.2869v-7.832h2.0487c4.0974,0,6.2314-2.3237,6.2314-6.1106S96.0212,29,91.9238,29H86.233V49.0246Zm1.3658-10.6435H89.8751v-6.57h1.3658c2.2763,0,3.2722,1.09,3.2722,3.2705S93.5172,38.3811,91.2409,38.3811ZM110.59,49.0246V31.9262H115V29H102.5087v2.9262h4.4388V49.0246ZM29.78,78c3.7844,0,6.6582-1.9508,6.6582-6.0246,0-2.8115-1.11-4.0738-3.4429-5.3934l-2.1341-1.2049c-1.11-.6312-2.1056-1.205-2.1056-2.6968,0-1.377.939-2.3524,2.76-2.3524a9.4009,9.4009,0,0,1,3.7274.8606l.1708-3.07a12.8756,12.8756,0,0,0-4.1543-.7173c-3.3291,0-6.26,1.8648-6.26,5.4509a5.629,5.629,0,0,0,3.2438,5.25l1.8495,1.0327c1.7641.9755,2.5893,1.6066,2.5893,3.041a2.76,2.76,0,0,1-3.0161,2.8976A8.0777,8.0777,0,0,1,25.4553,73.84l-.1992,3.27A9.0235,9.0235,0,0,0,29.78,78Zm19.5763-.2869V60.6148h4.41V57.6885H41.2757v2.9263h4.4388V77.7131Zm11.6662,0,1.4227-4.82h6.8289l1.3943,4.82h3.7559L68.0224,57.6885H64.0389L57.3806,77.7131Zm7.4834-7.6311H63.2137L65.9453,60.73h.0569Zm17.8264,7.6311c5.52,0,9.5036-3.27,9.5036-10.0123,0-6.627-3.3006-10.0123-9.5036-10.0123H81.154V77.7131Zm-.313-2.8115H84.7961V60.5H86.02c4.0974,0,5.9469,2.8115,5.9469,7.2008S90.117,74.9016,86.02,74.9016Zm24.4278,2.8115V60.6148h4.41V57.6885H102.3664v2.9263h4.4388V77.7131Z"/></g></g></g></g></svg>
