<svg width="488" height="229" viewBox="0 0 488 229" fill="none" xmlns="http://www.w3.org/2000/svg">
<path d="M11.5271 33.4603C11.4222 33.4599 11.3186 33.4361 11.2241 33.3906C11.1296 33.345 11.0466 33.279 10.981 33.1973C10.9155 33.1156 10.8691 33.0203 10.8454 32.9184C10.8216 32.8165 10.8211 32.7106 10.8438 32.6085L11.1175 30.9734C11.2874 30.4752 11.5293 30.0044 11.8355 29.5757L22.5711 12.1287H15.3235C15.2223 12.132 15.1217 12.1135 15.0285 12.0743C14.9353 12.0352 14.8516 11.9764 14.7834 11.9019C14.7152 11.8275 14.6639 11.7392 14.6332 11.6432C14.6025 11.5471 14.593 11.4456 14.6054 11.3455L14.8098 10.1871C14.8473 9.96938 14.9604 9.77168 15.1292 9.62853C15.2981 9.48539 15.512 9.40589 15.7337 9.40393H25.2727C25.3705 9.40671 25.4668 9.42967 25.5553 9.47134C25.6439 9.51302 25.7228 9.57252 25.7872 9.6461C25.8515 9.71967 25.8998 9.80572 25.9292 9.89884C25.9585 9.99195 25.9681 10.0901 25.9575 10.1871L25.6493 11.993C25.5671 12.3424 25.4284 12.6762 25.2386 12.9812L14.2962 30.7339H22.2633C22.3652 30.728 22.4671 30.7449 22.5616 30.7833C22.6561 30.8216 22.7409 30.8805 22.8097 30.9556C22.8785 31.0308 22.9296 31.1203 22.9593 31.2176C22.989 31.3149 22.9965 31.4176 22.9813 31.5181L22.7765 32.6761C22.7332 32.8912 22.6185 33.0855 22.4509 33.2277C22.2833 33.37 22.0726 33.4519 21.8526 33.4603H11.5271Z" fill="white"/>
<path d="M29.5884 26.3713L30.0336 23.6113C30.8884 18.1938 32.9042 16.0472 36.9736 16.0472C40.6668 16.0472 42.3075 18.7729 41.5905 23.2364L41.4193 24.3612C41.3849 24.7746 41.2046 25.1624 40.9103 25.4557C40.6161 25.749 40.2269 25.9288 39.8122 25.963H32.3923C31.4694 30.938 33.4519 30.9037 34.7853 30.9037C35.4712 30.9317 36.1489 30.7467 36.7247 30.3743C37.3006 30.0019 37.7461 29.4604 37.9999 28.8247C38.0621 28.6496 38.1875 28.5037 38.3517 28.4156C38.5158 28.3274 38.707 28.3033 38.888 28.3478L40.2216 28.6891C40.6334 28.7921 40.6334 29.201 40.4953 29.5753C40.0786 30.8717 39.2241 31.9843 38.0771 32.7236C36.9301 33.463 35.5616 33.7836 34.2042 33.6308C30.7171 33.6301 28.8706 30.9723 29.5884 26.3713ZM38.8191 23.2359C39.1284 21.1244 39.538 18.7724 36.564 18.7724C34.1353 18.7724 33.383 20.6127 32.8708 23.2359H38.8191Z" fill="white"/>
<path d="M58.1115 23.579L56.6756 32.6764C56.6465 32.8856 56.5454 33.0783 56.3894 33.2213C56.2335 33.3644 56.0325 33.449 55.8208 33.4606H54.5897C54.4891 33.4569 54.3904 33.4321 54.3 33.3878C54.2096 33.3435 54.1296 33.2808 54.0651 33.2037C54.0006 33.1266 53.9532 33.0368 53.9258 32.9403C53.8984 32.8437 53.8917 32.7424 53.9062 32.6431L55.616 21.9089C55.8897 19.728 56.1968 18.7736 54.7276 18.7736C53.596 19.0116 52.563 19.5847 51.7638 20.4178C50.9645 21.2508 50.4364 22.305 50.2485 23.4422L48.7771 32.6764C48.7504 32.8804 48.6547 33.0694 48.5058 33.2119C48.3568 33.3545 48.1636 33.4422 47.9579 33.4606H46.7959C46.6971 33.4606 46.5994 33.4394 46.5094 33.3986C46.4195 33.3577 46.3393 33.2981 46.2744 33.2238C46.2095 33.1495 46.1614 33.0622 46.1332 32.9677C46.105 32.8733 46.0975 32.7739 46.1111 32.6764L48.6087 17.0026C48.6584 16.791 48.7746 16.6008 48.9404 16.4597C49.1063 16.3186 49.313 16.234 49.5305 16.2184H50.6926C50.7901 16.2186 50.8862 16.2403 50.9743 16.2818C51.0624 16.3233 51.1402 16.3836 51.2023 16.4585C51.2643 16.5334 51.3091 16.6209 51.3333 16.715C51.3576 16.809 51.3608 16.9072 51.3426 17.0026L51.2401 17.8545C51.7397 17.3047 52.3457 16.8613 53.0217 16.5509C53.6976 16.2406 54.4296 16.0697 55.1736 16.0486C59.4804 16.0482 58.8304 19.0809 58.1115 23.579Z" fill="white"/>
<path d="M68.1691 16.2179L69.1288 10.1869C69.1594 9.95995 69.2752 9.75295 69.4528 9.60763C69.6304 9.46231 69.8567 9.38946 70.0861 9.40374H71.1791C71.2785 9.40139 71.3772 9.42093 71.4682 9.46095C71.5592 9.50097 71.6402 9.5605 71.7055 9.63529C71.7707 9.71008 71.8186 9.79829 71.8458 9.89365C71.8729 9.989 71.8786 10.0891 71.8625 10.1869L70.9051 16.2179H73.641C73.7412 16.2131 73.8412 16.2311 73.9334 16.2704C74.0257 16.3097 74.1078 16.3693 74.1736 16.4448C74.2393 16.5203 74.2871 16.6097 74.3132 16.7062C74.3393 16.8028 74.3431 16.9039 74.3243 17.0022L74.1531 17.9905C74.1101 18.2053 73.9958 18.3994 73.8286 18.5415C73.6613 18.6836 73.4509 18.7654 73.2313 18.7737H70.4953L68.9905 28.1102C68.6481 30.3598 68.6481 30.7337 69.8787 30.7337H71.4524C71.5559 30.735 71.6578 30.7598 71.7503 30.8062C71.8427 30.8526 71.9234 30.9194 71.9861 31.0015C72.0487 31.0836 72.0918 31.1789 72.112 31.2801C72.1322 31.3813 72.129 31.4858 72.1026 31.5856L71.9314 32.6759C71.9007 32.8904 71.7944 33.087 71.6317 33.2306C71.469 33.3743 71.2603 33.4556 71.043 33.4602H69.2644C67.1456 33.4602 65.5379 32.6426 66.0854 29.3027L67.759 18.7737H65.2638C65.1652 18.7731 65.0679 18.7517 64.9784 18.7107C64.8888 18.6697 64.8091 18.6102 64.7444 18.5361C64.6798 18.462 64.6317 18.375 64.6034 18.2809C64.5751 18.1869 64.5673 18.0879 64.5804 17.9905L64.7516 17.0022C64.7933 16.7867 64.9071 16.5917 65.0746 16.4492C65.242 16.3067 65.4531 16.2251 65.6732 16.2179H68.1691Z" fill="white"/>
<path d="M90.5367 19.9319C90.6726 19.1133 90.6056 18.7729 89.9557 18.7729C89.2368 18.7729 87.8009 20.2038 86.8436 21.1244C86.05 21.8746 85.5732 22.898 85.5102 23.9863L84.1082 32.6417C84.0787 32.8597 83.9739 33.0606 83.8118 33.2099C83.6496 33.3591 83.4404 33.4473 83.22 33.4593H82.0579C81.9564 33.4579 81.8563 33.4347 81.7647 33.3913C81.673 33.3478 81.5919 33.2851 81.5268 33.2074C81.4618 33.1298 81.4144 33.039 81.3878 32.9414C81.3612 32.8437 81.3562 32.7415 81.373 32.6417L83.8706 17.0356C83.9154 16.8122 84.034 16.6101 84.2074 16.4618C84.3809 16.3134 84.5993 16.2272 84.8277 16.217H85.9565C86.0564 16.2193 86.1545 16.2436 86.2439 16.2881C86.3333 16.3326 86.4118 16.3962 86.4736 16.4744C86.5355 16.5526 86.5793 16.6435 86.6019 16.7405C86.6245 16.8375 86.6253 16.9383 86.6043 17.0356L86.3982 18.3979C88.041 17.0356 89.2032 16.0472 90.6054 16.0472C93.1011 16.0472 93.5803 17.3074 93.0656 20.5109C93.048 20.7549 92.9405 20.9838 92.7638 21.1536C92.5871 21.3234 92.3536 21.4221 92.1083 21.4306H91.0853C90.5716 21.4306 90.3662 20.9879 90.4687 20.5109L90.5367 19.9319Z" fill="white"/>
<path d="M100.939 27.6325C100.632 29.5404 100.394 30.9037 101.932 30.9037C103.047 30.5841 104.046 29.9516 104.809 29.0818C105.573 28.2119 106.07 27.1415 106.24 25.9981L107.745 17.002C107.774 16.7929 107.875 16.6004 108.031 16.4573C108.187 16.3143 108.388 16.2296 108.599 16.2177H109.762C109.859 16.2183 109.955 16.2401 110.043 16.2817C110.131 16.3233 110.209 16.3836 110.271 16.4584C110.333 16.5332 110.377 16.6207 110.402 16.7146C110.426 16.8085 110.429 16.9066 110.412 17.002L107.916 32.6755C107.873 32.885 107.763 33.0749 107.603 33.2164C107.442 33.3579 107.239 33.4434 107.025 33.4598H105.864C105.764 33.4631 105.664 33.4442 105.573 33.4044C105.481 33.3646 105.4 33.305 105.334 33.2298C105.269 33.1547 105.221 33.066 105.194 32.9701C105.168 32.8742 105.163 32.7736 105.18 32.6755L105.351 31.7904C104.809 32.3899 104.143 32.865 103.399 33.1827C102.655 33.5005 101.851 33.6533 101.041 33.6306C98.1363 33.6306 97.4863 31.3467 98.1363 27.7692L99.8459 17.0361C99.8697 16.8157 99.9728 16.6114 100.136 16.4609C100.299 16.3104 100.512 16.2239 100.734 16.2175H101.965C102.065 16.2221 102.162 16.2478 102.25 16.2929C102.338 16.3381 102.416 16.4016 102.478 16.4792C102.539 16.5568 102.583 16.6467 102.607 16.7428C102.631 16.8388 102.634 16.9389 102.615 17.0361L100.939 27.6325Z" fill="white"/>
<path d="M124.094 33.4603C123.994 33.4537 123.897 33.427 123.808 33.3818C123.719 33.3366 123.64 33.2739 123.576 33.1975C123.512 33.121 123.465 33.0324 123.436 32.9371C123.408 32.8417 123.399 32.7416 123.41 32.6427L125.291 20.8869C125.496 19.4892 124.982 19.5579 124.503 19.9661C123.662 20.6474 123.112 21.6223 122.965 22.6928L121.358 32.7792C121.323 32.977 121.217 33.1553 121.06 33.2806C120.902 33.406 120.704 33.4699 120.503 33.4603H119.41C119.31 33.4537 119.213 33.427 119.124 33.3818C119.035 33.3366 118.956 33.2739 118.892 33.1975C118.829 33.121 118.781 33.0324 118.752 32.9371C118.724 32.8417 118.715 32.7416 118.727 32.6427L120.605 20.8869C120.81 19.4892 120.298 19.5579 119.82 19.9661C118.955 20.638 118.381 21.6132 118.213 22.6928L116.605 32.7792C116.571 32.9771 116.465 33.1556 116.307 33.281C116.15 33.4064 115.952 33.4702 115.75 33.4603H114.657C114.558 33.4605 114.461 33.4395 114.371 33.3987C114.281 33.3579 114.2 33.2983 114.136 33.2239C114.071 33.1494 114.023 33.062 113.995 32.9675C113.967 32.8729 113.96 32.7735 113.974 32.676L116.47 17.0023C116.52 16.7905 116.636 16.6002 116.802 16.4591C116.969 16.318 117.176 16.2336 117.393 16.218H118.727C118.825 16.2155 118.923 16.2353 119.012 16.276C119.101 16.3167 119.18 16.3771 119.243 16.4527C119.305 16.5283 119.349 16.6171 119.372 16.7123C119.395 16.8075 119.396 16.9067 119.375 17.0023L119.239 17.9563C119.494 17.4481 119.877 17.0146 120.35 16.698C120.823 16.3815 121.371 16.1928 121.939 16.1504C122.624 16.1504 123.444 16.4232 123.477 17.9563C123.757 17.439 124.164 17.0015 124.661 16.6854C125.158 16.3694 125.727 16.1852 126.316 16.1504C128.777 16.1504 128.368 18.7404 127.854 22.0105L126.146 32.7792C126.112 32.977 126.006 33.1553 125.848 33.2806C125.691 33.406 125.493 33.4699 125.292 33.4603H124.094Z" fill="white"/>
<path d="M155.598 18.7739L153.375 32.6761C153.339 32.8883 153.231 33.082 153.07 33.2247C152.908 33.3674 152.702 33.4506 152.486 33.4603H151.391C150.846 33.4603 150.572 33.1191 150.639 32.6761L152.863 18.7739H150.367C150.268 18.7759 150.169 18.7561 150.078 18.716C149.987 18.6759 149.906 18.6164 149.841 18.5417C149.776 18.467 149.728 18.379 149.7 18.2838C149.673 18.1886 149.667 18.0886 149.682 17.9907L149.853 17.0024C149.902 16.7898 150.018 16.5986 150.184 16.4572C150.351 16.3158 150.559 16.232 150.777 16.2181H153.273L153.615 13.9696C154.161 10.4599 155.598 9.40394 158.504 9.40394H160.622C160.724 9.40336 160.825 9.42529 160.918 9.46815C161.011 9.51102 161.093 9.57375 161.158 9.65188C161.223 9.73 161.271 9.82157 161.297 9.92004C161.322 10.0185 161.326 10.1214 161.307 10.2215L161.1 11.3118C161.073 11.5307 160.969 11.7329 160.806 11.8825C160.644 12.0322 160.433 12.1196 160.212 12.1293H158.093C156.862 12.1293 156.52 12.7428 156.315 14.1737L156.007 16.2181H159.119C159.219 16.2161 159.318 16.2358 159.408 16.276C159.499 16.3162 159.58 16.3759 159.646 16.4507C159.711 16.5255 159.759 16.6137 159.786 16.709C159.813 16.8044 159.819 16.9045 159.803 17.0024L159.632 17.9907C159.594 18.2085 159.481 18.4062 159.313 18.5494C159.144 18.6926 158.93 18.772 158.708 18.7739H155.598Z" fill="white"/>
<path d="M168.837 27.6325C168.529 29.5403 168.289 30.9037 169.827 30.9037C170.942 30.5842 171.941 29.9518 172.705 29.082C173.47 28.2122 173.966 27.1416 174.137 25.998L175.64 17.0019C175.669 16.7928 175.77 16.6003 175.926 16.4573C176.082 16.3143 176.283 16.2296 176.494 16.2177H177.659C177.756 16.2186 177.852 16.2407 177.939 16.2824C178.027 16.3241 178.105 16.3844 178.167 16.4591C178.229 16.5338 178.273 16.6211 178.298 16.7149C178.322 16.8086 178.326 16.9066 178.309 17.0019L175.811 32.6755C175.769 32.8849 175.66 33.075 175.499 33.2166C175.339 33.3582 175.136 33.4436 174.923 33.4597H173.762C173.662 33.4632 173.562 33.4444 173.471 33.4048C173.379 33.3651 173.297 33.3055 173.232 33.2303C173.166 33.1551 173.118 33.0663 173.091 32.9703C173.065 32.8743 173.06 32.7736 173.077 32.6755L173.246 31.7903C172.705 32.3897 172.039 32.8647 171.295 33.1824C170.552 33.5002 169.748 33.6531 168.939 33.6306C166.031 33.6306 165.384 31.3467 166.031 27.7692L167.741 17.0361C167.765 16.8155 167.869 16.611 168.033 16.4606C168.196 16.3101 168.409 16.2237 168.632 16.2175H169.863C169.962 16.2224 170.059 16.2484 170.147 16.2936C170.235 16.3389 170.312 16.4024 170.374 16.4799C170.435 16.5574 170.48 16.6471 170.504 16.743C170.527 16.839 170.531 16.9389 170.513 17.0361L168.837 27.6325ZM170.649 9.91309C170.876 9.90903 171.102 9.95536 171.309 10.0487C171.516 10.1421 171.7 10.2801 171.847 10.4529C171.994 10.6257 172.101 10.8289 172.16 11.0479C172.219 11.2668 172.228 11.4961 172.187 11.719C172.088 12.2044 171.829 12.6429 171.451 12.9643C171.073 13.2856 170.598 13.4713 170.101 13.4916C169.878 13.4961 169.657 13.4509 169.453 13.3593C169.25 13.2678 169.069 13.1321 168.925 12.9623C168.781 12.7925 168.677 12.5928 168.62 12.3777C168.563 12.1626 168.555 11.9376 168.596 11.719C168.681 11.23 168.93 10.7844 169.304 10.456C169.677 10.1276 170.151 9.93606 170.649 9.91309ZM176.906 9.91309C177.134 9.90919 177.359 9.95562 177.566 10.049C177.773 10.1424 177.957 10.2805 178.104 10.4533C178.251 10.626 178.358 10.8291 178.417 11.048C178.476 11.2669 178.485 11.4961 178.444 11.719C178.346 12.2043 178.086 12.6426 177.708 12.9639C177.33 13.2852 176.855 13.471 176.359 13.4916C176.135 13.4964 175.914 13.4513 175.71 13.3599C175.507 13.2684 175.326 13.1328 175.182 12.9629C175.038 12.793 174.933 12.5932 174.877 12.378C174.82 12.1628 174.812 11.9376 174.853 11.719C174.938 11.2299 175.187 10.7843 175.561 10.4559C175.934 10.1275 176.409 9.93597 176.906 9.91309Z" fill="white"/>
<path d="M193.157 19.9319C193.293 19.1133 193.226 18.7729 192.576 18.7729C191.857 18.7729 190.421 20.2038 189.464 21.1244C188.671 21.8746 188.194 22.898 188.131 23.9863L186.728 32.6417C186.699 32.8597 186.594 33.0606 186.432 33.2099C186.27 33.3591 186.06 33.4473 185.84 33.4593H184.678C184.576 33.4579 184.476 33.4347 184.385 33.3913C184.293 33.3478 184.212 33.2851 184.147 33.2074C184.082 33.1298 184.034 33.039 184.008 32.9414C183.981 32.8437 183.976 32.7415 183.993 32.6417L186.491 17.0356C186.535 16.8122 186.654 16.6102 186.828 16.4618C187.001 16.3134 187.219 16.2272 187.448 16.217H188.575C188.675 16.2193 188.773 16.2436 188.863 16.2881C188.952 16.3326 189.03 16.3962 189.092 16.4744C189.154 16.5526 189.198 16.6435 189.221 16.7405C189.243 16.8375 189.244 16.9383 189.223 17.0356L189.018 18.3979C190.661 17.0356 191.822 16.0472 193.225 16.0472C195.721 16.0472 196.2 17.3074 195.685 20.5109C195.668 20.7549 195.56 20.9838 195.384 21.1536C195.207 21.3234 194.973 21.4221 194.728 21.4306H193.704C193.19 21.4306 192.985 20.9879 193.087 20.5109L193.157 19.9319Z" fill="white"/>
<path d="M222.815 12.946L221.96 20.8164L220.079 32.6409C220.049 32.8589 219.944 33.0598 219.782 33.209C219.62 33.3583 219.411 33.4465 219.19 33.4584H218.029C217.926 33.4597 217.825 33.4382 217.732 33.3955C217.639 33.3529 217.557 33.2901 217.491 33.2118C217.426 33.1336 217.378 33.0417 217.353 32.9429C217.327 32.8442 217.324 32.741 217.344 32.6409L220.935 10.1859C220.972 9.97382 221.08 9.78063 221.242 9.63823C221.404 9.49583 221.609 9.41273 221.825 9.40267H223.875C224.354 9.40267 224.456 9.8109 224.559 10.1859L227.773 29.8818L228.526 22.3843L230.473 10.2202C230.498 9.99995 230.602 9.796 230.765 9.64582C230.929 9.49563 231.141 9.4093 231.364 9.40267H232.526C232.628 9.40111 232.73 9.4224 232.823 9.46497C232.916 9.50755 232.998 9.57033 233.064 9.64873C233.129 9.72712 233.176 9.81913 233.201 9.91801C233.227 10.0169 233.229 10.1201 233.209 10.2202L229.62 32.6752C229.583 32.8874 229.475 33.0807 229.313 33.2233C229.151 33.3659 228.945 33.4492 228.73 33.4595H226.679C226.2 33.4595 226.029 33.0502 225.994 32.6752L222.815 12.946Z" fill="white"/>
<path d="M234.823 26.3713L235.268 23.6113C236.123 18.1938 238.14 16.0472 242.209 16.0472C245.902 16.0472 247.543 18.7729 246.826 23.2364L246.655 24.3612C246.62 24.7746 246.44 25.1624 246.146 25.4557C245.851 25.7489 245.462 25.9287 245.047 25.963H237.628C236.704 30.938 238.687 30.9037 240.021 30.9037C240.707 30.9317 241.384 30.7467 241.96 30.3743C242.536 30.0019 242.982 29.4604 243.235 28.8247C243.298 28.6495 243.423 28.5037 243.587 28.4156C243.751 28.3274 243.943 28.3033 244.124 28.3478L245.457 28.6891C245.869 28.7921 245.869 29.201 245.731 29.5753C245.314 30.8717 244.46 31.9842 243.313 32.7236C242.166 33.463 240.797 33.7836 239.44 33.6308C235.952 33.6301 234.106 30.9723 234.823 26.3713ZM244.055 23.2359C244.364 21.1244 244.774 18.7724 241.799 18.7724C239.371 18.7724 238.618 20.6127 238.106 23.2359H244.055Z" fill="white"/>
<path d="M256.3 16.2179L257.259 10.1869C257.289 9.95995 257.405 9.75295 257.583 9.60763C257.76 9.46231 257.987 9.38946 258.216 9.40374H259.309C259.409 9.4014 259.507 9.42093 259.598 9.46095C259.689 9.50098 259.77 9.5605 259.836 9.63528C259.901 9.71007 259.949 9.79828 259.976 9.89363C260.003 9.98898 260.009 10.0891 259.993 10.1869L259.035 16.2179H261.771C261.871 16.2131 261.971 16.231 262.064 16.2703C262.156 16.3096 262.238 16.3692 262.304 16.4447C262.37 16.5202 262.417 16.6096 262.444 16.7062C262.47 16.8027 262.474 16.9039 262.455 17.0022L262.284 17.9905C262.241 18.2053 262.126 18.3994 261.959 18.5415C261.792 18.6836 261.581 18.7654 261.362 18.7737H258.626L257.121 28.1102C256.779 30.3598 256.779 30.7337 258.009 30.7337H259.583C259.687 30.735 259.789 30.7598 259.881 30.8062C259.973 30.8527 260.054 30.9195 260.117 31.0016C260.179 31.0837 260.222 31.179 260.243 31.2802C260.263 31.3814 260.26 31.4858 260.233 31.5856L260.062 32.6759C260.031 32.8904 259.925 33.087 259.762 33.2306C259.6 33.3743 259.391 33.4556 259.174 33.4602H257.395C255.276 33.4602 253.669 32.6426 254.216 29.3027L255.89 18.7737H253.395C253.296 18.7732 253.199 18.7517 253.109 18.7107C253.02 18.6698 252.94 18.6102 252.875 18.5361C252.811 18.462 252.763 18.375 252.734 18.281C252.706 18.1869 252.698 18.0879 252.711 17.9905L252.882 17.0022C252.924 16.7867 253.038 16.5917 253.206 16.4492C253.373 16.3067 253.584 16.2251 253.804 16.2179H256.3Z" fill="white"/>
<path d="M269.266 33.4597C269.161 33.4594 269.057 33.4356 268.963 33.3901C268.868 33.3446 268.785 33.2786 268.719 33.1969C268.654 33.1151 268.607 33.0198 268.584 32.9178C268.56 32.8159 268.559 32.71 268.582 32.6078L268.821 31.2788C268.957 30.7743 269.189 30.3004 269.504 29.8824L277.643 18.9439H271.454C271.353 18.9469 271.252 18.9281 271.159 18.8888C271.066 18.8496 270.982 18.7907 270.914 18.7162C270.846 18.6418 270.794 18.5535 270.763 18.4575C270.733 18.3615 270.723 18.2599 270.735 18.1598L270.906 17.0017C270.951 16.7813 271.071 16.5831 271.245 16.4403C271.419 16.2975 271.638 16.2188 271.863 16.2174H280.652C280.749 16.2182 280.845 16.2402 280.933 16.2819C281.021 16.3236 281.098 16.384 281.16 16.4587C281.222 16.5335 281.266 16.6209 281.29 16.7147C281.315 16.8085 281.318 16.9065 281.3 17.0017L281.062 18.5691C281.011 18.8432 280.893 19.1007 280.719 19.3188L272.207 30.7332H278.943C279.043 30.7284 279.143 30.7464 279.235 30.7857C279.328 30.825 279.41 30.8846 279.476 30.9601C279.541 31.0356 279.589 31.125 279.615 31.2215C279.641 31.3181 279.645 31.4192 279.626 31.5175L279.455 32.6754C279.412 32.8906 279.297 33.085 279.13 33.2272C278.962 33.3695 278.751 33.4514 278.531 33.4597H269.266Z" fill="white"/>
<path d="M295.363 16.7973C295.705 16.3536 295.91 16.2171 296.355 16.2171H298.339C298.817 16.2171 298.92 16.5584 298.577 17.0014L293.758 23.2365L296.732 32.6751C296.835 32.9136 296.561 33.4594 295.98 33.4594H294.715C294.27 33.4594 294.099 33.2553 293.928 32.6751L291.57 25.3841L289.313 28.3823L288.629 32.6751C288.592 32.887 288.483 33.0798 288.322 33.2223C288.16 33.3647 287.955 33.4483 287.739 33.4594H286.575C286.476 33.4596 286.378 33.4387 286.288 33.3979C286.198 33.3571 286.118 33.2975 286.053 33.2231C285.989 33.1486 285.941 33.0612 285.913 32.9666C285.885 32.8721 285.878 32.7727 285.892 32.6751L289.482 10.1862C289.519 9.97447 289.627 9.78152 289.789 9.63915C289.95 9.49678 290.155 9.41348 290.371 9.40299H291.533C291.632 9.39955 291.732 9.41835 291.823 9.45802C291.915 9.49769 291.996 9.55722 292.062 9.63227C292.127 9.70732 292.175 9.796 292.202 9.89183C292.228 9.98766 292.233 10.0882 292.216 10.1862L290.097 23.6801L295.363 16.7973Z" fill="white"/>
<path d="M306.174 27.6326C305.867 29.5404 305.628 30.9038 307.167 30.9038C308.281 30.5841 309.28 29.9517 310.044 29.0818C310.808 28.212 311.304 27.1415 311.474 25.9981L312.979 17.002C313.009 16.7929 313.11 16.6004 313.266 16.4574C313.422 16.3143 313.622 16.2297 313.834 16.2178H314.996C315.094 16.2183 315.19 16.2401 315.278 16.2817C315.365 16.3233 315.443 16.3836 315.505 16.4584C315.567 16.5332 315.612 16.6207 315.636 16.7146C315.661 16.8086 315.664 16.9067 315.646 17.002L313.151 32.6758C313.108 32.8853 312.998 33.0753 312.838 33.2169C312.677 33.3584 312.474 33.4438 312.26 33.46H311.098C310.998 33.4633 310.899 33.4444 310.808 33.4046C310.716 33.3649 310.635 33.3052 310.569 33.2301C310.504 33.1549 310.456 33.0662 310.429 32.9703C310.402 32.8744 310.398 32.7738 310.415 32.6758L310.586 31.7906C310.044 32.3901 309.378 32.8652 308.634 33.183C307.89 33.5007 307.086 33.6535 306.277 33.6309C303.371 33.6309 302.721 31.347 303.371 27.7695L305.081 17.0364C305.105 16.816 305.208 16.6117 305.371 16.4612C305.534 16.3107 305.747 16.2242 305.969 16.2178H307.2C307.299 16.2223 307.396 16.248 307.485 16.2932C307.573 16.3383 307.651 16.4018 307.712 16.4794C307.774 16.557 307.818 16.6469 307.842 16.743C307.866 16.8391 307.869 16.9391 307.85 17.0364L306.174 27.6326Z" fill="white"/>
<path d="M331.758 23.578L330.323 32.6754C330.294 32.8847 330.192 33.0774 330.036 33.2205C329.881 33.3636 329.679 33.4481 329.468 33.4597H328.237C328.136 33.4559 328.037 33.4311 327.947 33.3868C327.857 33.3425 327.777 33.2798 327.712 33.2027C327.648 33.1256 327.6 33.0358 327.573 32.9393C327.546 32.8427 327.539 32.7415 327.553 32.6421L329.263 21.908C329.537 19.7271 329.844 18.7726 328.375 18.7726C327.243 19.0106 326.21 19.5837 325.411 20.4168C324.612 21.2498 324.084 22.304 323.896 23.4413L322.424 32.6748C322.398 32.8788 322.302 33.0677 322.153 33.2103C322.004 33.3529 321.811 33.4406 321.605 33.459H320.443C320.344 33.459 320.246 33.4378 320.156 33.397C320.066 33.3561 319.986 33.2966 319.921 33.2222C319.857 33.1479 319.808 33.0606 319.78 32.9662C319.752 32.8717 319.744 32.7724 319.758 32.6748L322.256 17.001C322.305 16.7894 322.422 16.5992 322.587 16.4581C322.753 16.317 322.96 16.2324 323.177 16.2168H324.339C324.437 16.217 324.533 16.2387 324.621 16.2801C324.709 16.3216 324.787 16.382 324.849 16.4568C324.911 16.5317 324.956 16.6193 324.98 16.7133C325.005 16.8074 325.008 16.9056 324.99 17.001L324.887 17.8529C325.387 17.3031 325.993 16.8597 326.669 16.5494C327.345 16.239 328.077 16.0681 328.821 16.047C333.126 16.0472 332.477 19.08 331.758 23.578Z" fill="white"/>
<path d="M342.398 30.9041C343.182 30.9362 343.948 30.6681 344.539 30.1548C345.13 29.6415 345.502 28.922 345.577 28.1442C346.056 24.7021 337.439 25.862 339.491 19.1826C339.899 18.1686 340.626 17.3142 341.564 16.7486C342.502 16.183 343.599 15.9368 344.689 16.0473C345.293 16.0095 345.897 16.1109 346.455 16.3435C347.013 16.576 347.509 16.9336 347.906 17.3884C348.303 17.8431 348.589 18.3829 348.743 18.9658C348.896 19.5487 348.913 20.159 348.792 20.7495C348.758 20.969 348.646 21.169 348.477 21.3129C348.307 21.4568 348.091 21.5348 347.868 21.5326H346.775C346.674 21.5337 346.575 21.5136 346.483 21.4738C346.39 21.4339 346.308 21.375 346.24 21.3011C346.172 21.2272 346.121 21.1399 346.089 21.0448C346.057 20.9498 346.046 20.8491 346.056 20.7495C346.261 19.2498 345.885 18.7729 344.277 18.7729C343.722 18.7088 343.163 18.8608 342.717 19.1972C342.271 19.5336 341.973 20.0284 341.884 20.5786C341.372 23.5433 348.587 22.6573 348.278 28.1094C348.252 28.8917 348.066 29.6604 347.731 30.3683C347.396 31.0761 346.919 31.7081 346.329 32.2253C345.74 32.7425 345.05 33.134 344.303 33.3756C343.556 33.6172 342.767 33.7038 341.986 33.6302C341.293 33.6543 340.603 33.5189 339.972 33.2345C339.34 32.9501 338.782 32.5243 338.342 31.9903C337.902 31.4562 337.592 30.8282 337.435 30.1552C337.278 29.4821 337.279 28.782 337.438 28.1094L337.507 27.8366C337.532 27.6197 337.637 27.4199 337.802 27.2753C337.966 27.1308 338.178 27.0518 338.397 27.0534H339.523C339.624 27.0482 339.724 27.0657 339.816 27.1048C339.909 27.1438 339.991 27.2033 340.057 27.2788C340.123 27.3543 340.171 27.4437 340.197 27.5403C340.224 27.637 340.227 27.7383 340.208 27.8366C339.765 30.4948 340.825 30.9041 342.398 30.9041Z" fill="white"/>
<path d="M358.92 16.2179L359.879 10.187C359.91 9.95994 360.025 9.75291 360.203 9.60758C360.381 9.46225 360.607 9.38942 360.836 9.40375H361.929C362.029 9.40141 362.128 9.42094 362.219 9.46096C362.31 9.50098 362.391 9.56051 362.456 9.6353C362.521 9.71009 362.569 9.79831 362.596 9.89366C362.623 9.98901 362.629 10.0892 362.613 10.187L361.656 16.2179H364.392C364.492 16.2131 364.592 16.2311 364.684 16.2704C364.776 16.3097 364.858 16.3693 364.924 16.4448C364.99 16.5203 365.038 16.6097 365.064 16.7062C365.09 16.8028 365.094 16.904 365.075 17.0022L364.904 17.9905C364.861 18.2053 364.747 18.3994 364.579 18.5415C364.412 18.6836 364.202 18.7654 363.982 18.7737H361.246L359.741 28.1102C359.399 30.3598 359.399 30.7337 360.63 30.7337H362.203C362.307 30.735 362.409 30.7598 362.501 30.8063C362.594 30.8527 362.674 30.9195 362.737 31.0016C362.8 31.0837 362.843 31.179 362.863 31.2802C362.883 31.3814 362.88 31.4858 362.853 31.5856L362.682 32.6759C362.651 32.8904 362.545 33.087 362.383 33.2307C362.22 33.3743 362.011 33.4557 361.794 33.4602H360.015C357.896 33.4602 356.289 32.6426 356.836 29.3027L358.51 18.7737H356.015C355.916 18.7732 355.819 18.7517 355.729 18.7107C355.64 18.6697 355.56 18.6102 355.495 18.5361C355.431 18.462 355.383 18.375 355.354 18.2809C355.326 18.1869 355.318 18.0879 355.331 17.9905L355.503 17.0022C355.544 16.7867 355.658 16.5917 355.826 16.4492C355.993 16.3067 356.204 16.2252 356.424 16.2179H358.92Z" fill="white"/>
<path d="M0 0V42.0364L12.6071 74.0261L24.823 105.021L36.072 133.563L48.2888 164.557L61.4708 198.006H188.399L200.124 227.753L200.118 227.767L200.133 227.776L200.616 229H408.21L421.405 198.006H421.407L435.644 164.557H308.719L320.868 136.016H320.869L334.064 105.021H334.065L347.26 74.0261H474.189L487.801 42.0509V0H0ZM485.339 2.45282V40.578H2.46124V2.45282H485.339ZM253.421 102.567L240.226 133.563H240.224L227.029 164.557H177.86L166.612 136.016L154.395 105.021L142.179 74.0261H265.571L253.423 102.567H253.421ZM298.924 181.281L292.847 195.552H269.09L257.841 167.011H305L298.924 181.281ZM270.056 198.006H291.803L285.728 212.276L280.511 224.527L270.056 198.006ZM266.445 195.553H216.505L228.657 167.012H255.196L266.445 195.553ZM213.832 195.553H190.076L184.451 181.282L178.827 167.012H225.983L213.835 195.552L213.832 195.553ZM129.966 43.0316H254.248L265.497 71.5724H141.213L135.589 57.3021L129.966 43.0316ZM256.892 43.0316H357.784L345.633 71.5724H268.142L256.892 43.0316ZM127.321 43.0316L132.945 57.3021L138.568 71.5724H14.2855L3.03675 43.0316H127.321ZM139.536 74.0261L150.785 102.567H26.5025L15.2522 74.0261H139.536ZM27.4686 105.021H151.752L163.001 133.563H38.7164L27.4686 105.021ZM39.6838 136.016H163.969L175.215 164.557H50.9332L39.6838 136.016ZM63.1468 195.552L51.9002 167.011H176.182L181.807 181.281L187.431 195.552H63.1468ZM191.043 198.005H212.788L201.497 224.529L191.043 198.005ZM203.31 226.545L215.463 198.005H267.414L278.662 226.545H203.31ZM406.58 226.545H282.326L288.401 212.275L294.478 198.005H418.733L406.58 226.545ZM431.928 167.01L419.776 195.551H295.522L301.598 181.28L307.674 167.01H431.928ZM306.044 164.557H229.701L241.855 136.016H318.196L306.044 164.557ZM319.239 133.563H242.897L255.051 105.021H331.392L319.239 133.563ZM332.435 102.567H256.094L268.245 74.0261H344.589L332.435 102.567ZM472.559 71.5724H348.305L360.459 43.0316H484.712L472.559 71.5724Z" fill="white"/>
</svg>
